<?xml version="1.0" encoding="utf-8"?>
<!-- Generator: Adobe Illustrator 24.2.0, SVG Export Plug-In . SVG Version: 6.00 Build 0)  -->
<svg version="1.1" id="step2" xmlns="http://www.w3.org/2000/svg" xmlns:xlink="http://www.w3.org/1999/xlink" x="0px" y="0px"
	 viewBox="0 0 1366 768" style="enable-background:new 0 0 1366 768;" xml:space="preserve">
<style type="text/css">
	.st0{fill:none;stroke:#A5A5A5;stroke-miterlimit:10;}
</style>
<g>
	<rect x="484" y="290" class="st0" width="79" height="188"/>
	<polygon class="st0" points="483,290 483,290.1 484,290 	"/>
	<polygon class="st0" points="483,478 484,478 483,477.98 	"/>
	<rect x="564" y="290" class="st0" width="79" height="188"/>
	<rect x="644" y="290" class="st0" width="79" height="188"/>
	<rect x="724" y="290" class="st0" width="79" height="188"/>
	<rect x="804" y="290" class="st0" width="79" height="188"/>
	<polygon class="st0" points="884,290 883,290 884,290.1 	"/>
	<polygon class="st0" points="884,478 884,477.98 883,478 	"/>
	<polygon class="st0" points="940,295.96 941,296.2 941,296 884,290.1 884,477.98 941,477 941,476.87 940,476.96 	"/>
	<polygon class="st0" points="970,303.5 970,303 941,296.2 941,476.87 970,474.1 970,303.5 	"/>
	<polygon class="st0" points="997,312 997,312 997,311.5 970,303.5 971,474 970,474.1 970,474.5 997.9,470.47 997.9,469.93 
		997,470.02 	"/>
	<polygon class="st0" points="997,312 997.9,469.93 1023.87,467.43 1023,318.14 	"/>
	<polygon class="st0" points="1047,325.33 1024,318.36 1024,467.26 1047.77,463.75 	"/>
	<polygon class="st0" points="426,296 426,296.1 396,303.13 396,303.5 396,303.5 396,474.23 426,477.1 426,477 483,477.98 
		483,290.1 	"/>
	<polygon class="st0" points="396,303.5 369,311.5 368.1,470.47 396,474.5 396,474.23 395,474.13 	"/>
	<polygon class="st0" points="342,318.5 342,318.5 342,318.5 342,467.39 341.14,467.27 341.13,467.57 368,470.15 368,312.13 
		342,318.28 	"/>
	<polygon class="st0" points="319,325.46 318.23,463.89 341.14,467.27 342,318.5 	"/>
</g>
</svg>
